<?xml version="1.0" encoding="UTF-8" standalone="no"?>
<!-- Generator: Adobe Illustrator 24.0.1, SVG Export Plug-In . SVG Version: 6.00 Build 0)  -->

<svg
   version="1.1"
   id="Layer_1"
   x="0px"
   y="0px"
   width="1200px"
   height="1200px"
   viewBox="0 0 1200 1200"
   style="enable-background:new 0 0 1200 1200;"
   xml:space="preserve"
   xmlns="http://www.w3.org/2000/svg"
   xmlns:svg="http://www.w3.org/2000/svg"><defs
   id="defs4728" />
<style
   type="text/css"
   id="style4457">
	.st0{fill:#5A4328;}
	.st1{fill:#F3F1E3;}
	.st2{fill:#FAFEC2;}
	.st3{fill:#2AB084;}
	.st4{fill:#248061;}
	.st5{fill:#F3DB3F;}
	.st6{fill:#EEECDE;}
	.st7{fill:#A7770F;}
	.st8{fill:#7C7B67;}
	.st9{fill:#F0F8FB;}
	.st10{fill:#000004;}
	.st11{fill:#D16046;}
	.st12{fill:#FDEC47;}
	.st13{fill:#775934;}
	.st14{fill:#231F14;}
	.st15{fill:#DCDACE;}
	.st16{fill:none;stroke:#000000;stroke-miterlimit:10;}
</style>
<g
   id="illustration_1_"><ellipse
   style="fill:#ff0000;fill-rule:evenodd"
   id="path4873"
   cx="695.76923"
   cy="153.46153"
   rx="61.153847"
   ry="58.846153" />
	<path
   class="st0"
   d="m 848.1,432 c 3.6,-13.5 -13.4,-26.7 -42.5,-30.6 29,-0.5 72.2,2.6 72.9,-14.1 0.7,-17.7 -22.2,-17.6 -50.4,-18.8 29.6,-5.4 50.8,-13.9 47.4,-26 -4.7,-17 -38.4,-6.9 -66.1,-1.2 -13.2,2.7 -25.3,1.1 -35.7,-0.7 -39.5,-6.9 -65.2,-35.3 -51.3,-52.5 11.7,-14.5 15.1,-36.4 15.1,-56 0,-46.6 -28.9,-84.4 -112,-84.4 -92.5,0 -112,37.8 -112,84.4 0,21.7 5.9,45.2 19.5,56.4 16.4,13.5 -14.5,45.1 -54.4,52.1 -10.4,1.8 -22.5,3.4 -35.7,0.7 -27.6,-5.7 -61.3,-15.8 -66.1,1.2 -3.4,12.1 17.8,20.6 47.4,26 -28.2,1.2 -51.1,1.1 -50.4,18.8 0.7,16.7 43.9,13.7 72.9,14.1 -29.1,3.9 -47.5,17.6 -42.5,30.6 8,20.8 38.4,23.2 73.6,8 43.3,-18.6 45.6,-22.3 45.6,-22.3 6.7,26.2 22.6,46.5 58.3,55.1 9.8,2.4 21,3.9 33.9,4.4 3.4,0.1 6.8,0.2 10.4,0.2 5.5,0 10.8,-0.2 15.8,-0.5 55.5,-3.7 78.4,-27.7 86.8,-60.8 0,0 6.5,3.5 50.5,24.8 39.8,19.1 64.2,8.9 69,-8.9 z"
   id="path4459" />
	<path
   class="st1"
   d="m 714.9,399.3 c 1.7,-37.9 -21.1,-92.1 -88.7,-92.1 -69.4,0 -85.1,56.4 -84,90.8 1.3,40.8 53.3,69.4 84,69.7 30.7,0.3 87,-31.4 88.7,-68.4 z"
   id="path4461" />
	<g
   id="g4493">
		<ellipse
   class="st2"
   cx="625.59998"
   cy="232"
   rx="101.6"
   ry="76.599998"
   id="ellipse4463" />
		<circle
   id="jawMid_1_"
   cx="624.5"
   cy="290.70001"
   r="0.80000001" />
		<circle
   id="rightJaw7_1_"
   cx="609.5"
   cy="287.5"
   r="0.80000001" />
		<circle
   id="rightJaw6_1_"
   cx="599.5"
   cy="280.79999"
   r="0.80000001" />
		<circle
   id="rightJaw5_1_"
   cx="587.90002"
   cy="268.29999"
   r="0.80000001" />
		<circle
   id="rightJaw4_1_"
   cx="581.09998"
   cy="248.3"
   r="0.80000001" />
		<circle
   id="rightJaw3_1_"
   cx="580.29999"
   cy="226.60001"
   r="0.80000001" />
		<circle
   id="rightJaw2_1_"
   cx="580.29999"
   cy="217.10001"
   r="0.80000001" />
		<circle
   id="rightJaw1_1_"
   cx="581.09998"
   cy="205.39999"
   r="0.80000001" />
		<circle
   id="rightJaw0_1_"
   cx="583.59998"
   cy="196.10001"
   r="0.80000001" />
		<circle
   id="topMid_1_"
   cx="624.70001"
   cy="170"
   r="0.80000001" />
		<circle
   id="leftTop0_1_"
   cx="644.40002"
   cy="172.5"
   r="0.80000001" />
		<circle
   id="leftTop1_1_"
   cx="657"
   cy="182"
   r="0.80000001" />
		<circle
   id="leftJaw7_1_"
   cx="639.29999"
   cy="287.89999"
   r="0.80000001" />
		<circle
   id="leftJaw6_1_"
   cx="649.29999"
   cy="281.20001"
   r="0.80000001" />
		<circle
   id="leftJaw5_1_"
   cx="660.90002"
   cy="268.60001"
   r="0.80000001" />
		<circle
   id="leftJaw4_1_"
   cx="667.70001"
   cy="248.60001"
   r="0.80000001" />
		<circle
   id="leftJaw3_1_"
   cx="668.5"
   cy="227"
   r="0.80000001" />
		<circle
   id="leftJaw2_1_"
   cx="668.5"
   cy="217.39999"
   r="0.80000001" />
		<circle
   id="leftJaw1_1_"
   cx="667.70001"
   cy="205.7"
   r="0.80000001" />
		<circle
   id="leftJaw0_1_"
   cx="665.20001"
   cy="196.5"
   r="0.80000001" />
		<circle
   id="rightTop0_1_"
   cx="604.79999"
   cy="172.5"
   r="0.80000001" />
		<circle
   id="rightTop1_1_"
   cx="592.20001"
   cy="182"
   r="0.80000001" />
		<path
   class="st3"
   d="m 659,309 c 3.3,-6.1 2.8,-8.1 2.9,-17.3 -15.8,-3.5 -21.9,5.2 -29.4,14.1 -0.8,-2.6 -2.8,-4.2 -7,-4.2 -4.5,0 -6.4,1.7 -7.1,4.2 -7.5,-8.9 -13.6,-17.6 -29.3,-14.1 0.1,9.2 -0.4,11.2 2.9,17.3 -3.1,6.1 -5.7,7.9 -2.9,16.1 8.4,2.8 16.9,2.4 29.9,-8.1 1.1,2.2 3.1,3.6 6.6,3.6 3.5,0 5.5,-1.4 6.5,-3.5 13,10.5 21.5,10.9 29.9,8.1 2.7,-8.3 0.1,-10 -3,-16.2 z"
   id="path4487" />
		<path
   class="st4"
   d="m 652.6,308.8 c -0.3,-4.9 -10,-3.2 -17.3,-0.8 -0.2,-1.9 -0.7,-3.2 -1.8,-3.2 -1.8,0 -1.9,2.9 -1.9,6.4 0,3.5 0.4,6.4 1.9,6.4 1.4,0 1.9,-2.5 1.9,-5.8 9.7,3.1 17.5,2 17.2,-3 z"
   id="path4489" />
		<path
   class="st4"
   d="m 617.8,304.8 c -1.1,0 -1.6,1.3 -1.8,3.2 -7.3,-2.4 -17,-4.1 -17.3,0.8 -0.3,5 7.5,6.1 17.2,3 0,3.2 0.5,5.8 1.9,5.8 1.5,0 1.9,-2.9 1.9,-6.4 0,-3.6 -0.1,-6.4 -1.9,-6.4 z"
   id="path4491" />
	</g>
	<path
   class="st5"
   d="m 619.9,520.6 c -2.2,-4.8 -7.3,-12.8 -9.1,-15.6 0,0 0,0 0,0 -5.8,-14.9 -2.8,-10.3 2.2,-27.9 -14.7,-1.3 -28.6,-3.7 -28.6,-3.7 4.1,15.5 7.6,11.5 2.4,27.4 -16.6,-1.5 -36.9,-0.2 -44.5,13.5 3.7,1.1 7.3,2.1 10.9,2.8 -6,4 -10.5,8.8 -12.2,14.2 10.6,1 22.7,-0.9 34.2,-3.6 -0.9,2.2 -1.6,4.5 -2,7 21.4,-0.9 30.9,-7.7 46.7,-14.1 z"
   id="path4495" />
	<path
   class="st5"
   d="M 542.3,514.3"
   id="path4497" />
	<path
   class="st6"
   d="m 559.5,518.4 c -5.5,-0.9 -11.3,-2.3 -17.2,-4.1 3.4,-6.2 9.3,-9.8 16.4,-11.8 2.7,6.9 0.8,15.9 0.8,15.9 z"
   id="path4499" />
	<path
   class="st6"
   d="m 564.5,530 c -6.9,1 -17.2,2 -23.6,1.4 2.1,-6.6 8.5,-12.3 16.6,-16.9 8.9,2.2 7,15.5 7,15.5 z"
   id="path4501" />
	<path
   class="st6"
   d="m 589.3,532.6 c -4.7,1.1 -9.9,1.9 -16.2,2.2 1.3,-7.9 3.5,-20.1 10.5,-18.9 5.1,8.7 5.7,16.7 5.7,16.7 z"
   id="path4503" />
	<path
   class="st7"
   d="m 587.1,481.6 c 4.7,1.8 16.8,4.9 23.5,2.9 l -1.9,4.9 c 0,0 -12.1,0.6 -20,-3.8 z"
   id="path4505" />
	<path
   class="st7"
   d="m 589.3,492.4 c 5.5,3.7 10.7,5 18.1,4.7 l 1.3,2.6 c 0,0 -12.1,0.6 -20,-3.8 z"
   id="path4507" />
	<path
   class="st7"
   d="m 586.7,500.4 c 7,6.6 17.8,6.3 25.2,6 l 1.3,3.6 c 0,0 -21.5,-1 -27.1,-6.1 z"
   id="path4509" />
	<path
   class="st5"
   d="m 637.3,519.6 c 2.2,-4.8 7.3,-12.8 9.1,-15.6 0,0 0,0 0,0 5.8,-14.9 2.8,-10.3 -2.2,-27.9 14.7,-1.3 28.6,-3.7 28.6,-3.7 -4.1,15.5 -7.6,11.5 -2.4,27.4 16.6,-1.5 36.9,-0.2 44.5,13.5 -3.7,1.1 -7.3,2.1 -10.9,2.8 6,4 10.5,8.8 12.2,14.2 -10.6,1 -22.7,-0.9 -34.2,-3.6 0.9,2.2 1.6,4.5 2,7 -21.4,-0.9 -30.9,-7.7 -46.7,-14.1 z"
   id="path4511" />
	<path
   class="st5"
   d="M 714.9,513.3"
   id="path4513" />
	<path
   class="st6"
   d="m 697.7,517.4 c 5.5,-0.9 11.3,-2.3 17.2,-4.1 -3.4,-6.2 -9.3,-9.8 -16.4,-11.8 -2.7,6.9 -0.8,15.9 -0.8,15.9 z"
   id="path4515" />
	<path
   class="st6"
   d="m 692.7,529 c 6.9,1 17.2,2 23.6,1.4 -2.1,-6.6 -8.5,-12.3 -16.6,-16.9 -8.9,2.2 -7,15.5 -7,15.5 z"
   id="path4517" />
	<path
   class="st6"
   d="m 667.9,531.6 c 4.7,1.1 9.9,1.9 16.2,2.2 -1.3,-7.9 -3.5,-20.1 -10.5,-18.9 -5.1,8.7 -5.7,16.7 -5.7,16.7 z"
   id="path4519" />
	<path
   class="st7"
   d="m 670.1,480.6 c -4.7,1.8 -16.8,4.9 -23.5,2.9 l 1.9,4.9 c 0,0 12.1,0.6 20,-3.8 z"
   id="path4521" />
	<path
   class="st7"
   d="m 667.9,491.4 c -5.5,3.7 -10.7,5 -18.1,4.7 l -1.3,2.6 c 0,0 12.1,0.6 20,-3.8 z"
   id="path4523" />
	<path
   class="st7"
   d="m 670.5,499.4 c -7,6.6 -17.8,6.3 -25.2,6 L 644,509 c 0,0 21.5,-1 27.1,-6.1 z"
   id="path4525" />
	<g
   id="g4541">
		<circle
   class="st8"
   cx="565"
   cy="220.60001"
   r="37.799999"
   id="circle4527" />
		<circle
   class="st9"
   cx="565"
   cy="220.60001"
   r="32.299999"
   id="circle4529" />
		<ellipse
   class="st10"
   cx="558.40002"
   cy="209.5"
   rx="9.8000002"
   ry="13"
   id="ellipse4531" />
		<circle
   class="st11"
   cx="544.40002"
   cy="266.20001"
   r="24.799999"
   id="circle4533" />
		<circle
   id="rightEye0_1_"
   cx="594.70001"
   cy="215.10001"
   r="0.80000001" />
		<circle
   id="rightEye1_1_"
   cx="599.90002"
   cy="211.39999"
   r="0.80000001" />
		<circle
   id="rightEye5_1_"
   cx="599.90002"
   cy="217.39999"
   r="0.80000001" />
		<circle
   id="rightEye2_1_"
   cx="606.20001"
   cy="211.39999"
   r="0.80000001" />
		<circle
   id="rightEye3_1_"
   cx="611.40002"
   cy="215.60001"
   r="0.80000001" />
		<circle
   id="rightEye4_1_"
   cx="606.20001"
   cy="216.60001"
   r="0.80000001" />
	</g>
	<g
   id="g4557">
		<circle
   class="st8"
   cx="685.5"
   cy="220.60001"
   r="37.799999"
   id="circle4543" />
		<circle
   class="st9"
   cx="685.5"
   cy="220.60001"
   r="32.299999"
   id="circle4545" />
		<ellipse
   class="st10"
   cx="692.09998"
   cy="209.5"
   rx="10.1"
   ry="13"
   id="ellipse4547" />
		<circle
   class="st11"
   cx="706.90002"
   cy="266.20001"
   r="24.799999"
   id="circle4549" />
		<circle
   id="leftEye0_1_"
   cx="654.29999"
   cy="215.10001"
   r="0.80000001" />
		<circle
   id="leftEye1_1_"
   cx="649.09998"
   cy="211.39999"
   r="0.80000001" />
		<circle
   id="leftEye5_1_"
   cx="649.09998"
   cy="217.39999"
   r="0.80000001" />
		<circle
   id="leftEye2_1_"
   cx="642.79999"
   cy="211.39999"
   r="0.80000001" />
		<circle
   id="leftEye3_1_"
   cx="637.59998"
   cy="215.60001"
   r="0.80000001" />
		<circle
   id="leftEye4_1_"
   cx="642.79999"
   cy="216.60001"
   r="0.80000001" />
	</g>
	<g
   id="g4578">
		<path
   class="st0"
   d="m 511.8,96.1 c -12.2,16.2 -14.5,25.9 -12.5,42.6 3.6,31.3 99.5,30.5 102.9,97.4 11.7,-9.8 38.1,-9.5 49.9,0 1.4,-65.4 94.5,-66.2 98.1,-97.4 1.9,-16.6 -0.3,-26.4 -12.5,-42.6 -4.4,27.1 -60.8,51.6 -112,51.6 -51.2,0 -108.5,-29.1 -113.9,-51.6 z"
   id="path4559" />
		<circle
   id="rightJaw0_2_"
   cx="583.59998"
   cy="196.10001"
   r="0.80000001" />
		<circle
   id="topMid_2_"
   cx="624.70001"
   cy="170"
   r="0.80000001" />
		<circle
   id="leftTop0_2_"
   cx="644.40002"
   cy="172.5"
   r="0.80000001" />
		<circle
   id="leftTop1_2_"
   cx="657"
   cy="182"
   r="0.80000001" />
		<circle
   id="leftJaw0_2_"
   cx="665.20001"
   cy="196.5"
   r="0.80000001" />
		<circle
   id="rightTop0_2_"
   cx="604.79999"
   cy="172.5"
   r="0.80000001" />
		<circle
   id="rightTop1_2_"
   cx="592.20001"
   cy="182"
   r="0.80000001" />
		<circle
   id="rightBrow1_1_"
   cx="592.5"
   cy="203.2"
   r="0.80000001" />
		<circle
   id="rightBrow4_1_"
   cx="615.79999"
   cy="206.2"
   r="0.80000001" />
		<circle
   id="rightBrow3_1_"
   cx="606"
   cy="202.2"
   r="0.80000001" />
		<circle
   id="rightBrow0_1_"
   cx="588.5"
   cy="206.89999"
   r="0.80000001" />
		<circle
   id="rightBrow2_1_"
   cx="598.70001"
   cy="202.2"
   r="0.80000001" />
		<circle
   id="leftBrow1_1_"
   cx="656.20001"
   cy="203.60001"
   r="0.80000001" />
		<circle
   id="leftBrow4_1_"
   cx="632.59998"
   cy="205.7"
   r="0.80000001" />
		<circle
   id="leftBrow3_1_"
   cx="642.59998"
   cy="202.5"
   r="0.80000001" />
		<circle
   id="leftBrow0_1_"
   cx="660.20001"
   cy="206.5"
   r="0.80000001" />
		<circle
   id="leftBrow2_1_"
   cx="649.90002"
   cy="202.10001"
   r="0.80000001" />
	</g>
	<g
   id="g4594">
		<path
   class="st12"
   d="m 660.5,250.1 c 1.6,-15 -11.7,-39.3 -35.4,-39.3 -24.6,0 -34.7,27.4 -32.7,39.3 4.4,26.6 19.8,36.7 36,36.7 16.5,0 29.3,-10.7 32.1,-36.7 z"
   id="path4580" />
		<path
   class="st13"
   d="m 594.3,251 c 6,-1.1 19.8,-0.9 33.2,-0.9 11.5,0 23.2,0.2 31.7,1.6 -7.8,2.9 -18,7.9 -31,7.8 -14.8,-0.1 -29.1,-6.5 -33.9,-8.5 z"
   id="path4582" />
		<circle
   id="rightMouthCorner_1_"
   cx="596.29999"
   cy="251.89999"
   r="0.80000001" />
		<path
   id="rightMiddleLip_1_"
   d="m 606.2,253.3 c 0.4,0 0.8,0.4 0.8,0.8 0,0.4 -0.4,0.8 -0.8,0.8 -0.4,0 -0.8,-0.4 -0.8,-0.8 0,-0.4 0.4,-0.8 0.8,-0.8 z" />
		<circle
   id="upperLipBottomMid_1_"
   cx="628.29999"
   cy="251.3"
   r="0.80000001" />
		<circle
   id="lowerLipTopMid_1_"
   cx="628.09998"
   cy="259.5"
   r="0.80000001" />
		<circle
   id="rightUpperLipBottom1_1_"
   cx="613.20001"
   cy="251.8"
   r="0.80000001" />
		<circle
   id="rightLowerLipTop0_1_"
   cx="616.59998"
   cy="256.20001"
   r="0.80000001" />
		<circle
   id="leftMouthCorner_1_"
   cx="657.40002"
   cy="252.3"
   r="0.80000001" />
		<path
   id="leftMiddleLip_1_"
   d="m 649.1,253.8 c 0.4,0 0.8,0.4 0.8,0.8 0,0.4 -0.4,0.8 -0.8,0.8 -0.4,0 -0.8,-0.4 -0.8,-0.8 0,-0.4 0.4,-0.8 0.8,-0.8 z" />
		<circle
   id="leftUpperLipBottom1_1_"
   cx="642.79999"
   cy="251.5"
   r="0.80000001" />
		<circle
   id="leftLowerLipTop0_1_"
   cx="639.29999"
   cy="256.20001"
   r="0.80000001" />
	</g>
	<path
   class="st14"
   d="m 921.6,447.8 c -4,24.3 -40.4,19.7 -81.2,11.8 -72.8,-14.1 -75.5,-37.8 -72.7,-51.1 2.5,-11.6 36.5,-8.4 70.3,-3.4 -19.2,-5 -31.7,-12.7 -31.3,-20.9 0.2,-5 5.3,-9.5 13.6,-13 -7.6,-1.5 -12.5,-4.5 -13.8,-8.8 -3.6,-12.4 24.3,-31.5 62.4,-42.5 38.1,-11 68.6,-21.4 75.5,2.5 6.3,21.9 -22.6,30.9 -59.2,41.6 36.9,1.5 65.9,2.6 64.9,26.2 -1,23.5 -33.1,23.2 -72.7,20.5 37.4,12.6 46.7,22.5 44.2,37.1 z"
   id="path4596" />
	<path
   class="st15"
   d="m 757.6,410.2 c 2.2,-10.2 22.6,-14.8 48.7,-12.1 -10.4,-4 -16.7,-9.2 -16.5,-14.6 0.2,-3.7 3.4,-7 8.8,-9.8 -4.5,-1.4 -7.4,-3.7 -8.3,-6.6 -3.1,-10.6 20.7,-26.8 53.2,-36.2 32.4,-9.4 58.4,-18.2 64.3,2.1 5,17.3 -15.9,25.2 -43.9,33.5 27.9,1.2 48.9,3.5 48.1,22 -0.8,20 -28.2,18.9 -61.9,17.5 -1.1,0 -2.2,-0.1 -3.2,-0.2 23.8,5.7 40.1,12.7 36,31.4 -4.9,22.6 -35.6,21.1 -70.2,13.6 -34.6,-7.4 -57.8,-28.1 -55.1,-40.6 z"
   id="path4598" />
	<path
   class="st0"
   d="m 848.1,432 c 3.6,-13.5 -13.4,-26.7 -42.5,-30.6 29,-0.5 72.2,2.6 72.9,-14.1 0.7,-17.7 -22.2,-17.6 -50.4,-18.8 29.6,-5.4 50.8,-13.9 47.4,-26 -4.7,-17 -38.4,-6.9 -66.1,-1.2 -27.1,5.6 -53.4,1.8 -70,29.7 -2.9,4.9 -5,10.3 -5.3,15.9 -0.3,7.4 2.9,14.6 6.9,20.9 13.6,21 44.3,40.2 69.3,43.1 15,1.4 33.4,-2.5 37.8,-18.9 z"
   id="path4600" />
	<path
   class="st14"
   d="m 330.9,447.8 c 4,24.3 40.4,19.7 81.2,11.8 72.8,-14.1 75.5,-37.8 72.7,-51.1 -2.5,-11.6 -36.5,-8.4 -70.3,-3.4 19.2,-5 31.7,-12.7 31.3,-20.9 -0.2,-5 -5.3,-9.5 -13.6,-13 7.6,-1.5 12.5,-4.5 13.8,-8.8 3.6,-12.4 -24.3,-31.5 -62.4,-42.5 -38.1,-11 -68.6,-21.4 -75.5,2.5 -6.3,21.9 22.6,30.9 59.2,41.6 -36.9,1.5 -65.9,2.6 -64.9,26.2 1,23.5 33.1,23.2 72.7,20.5 -37.4,12.6 -46.7,22.5 -44.2,37.1 z"
   id="path4602" />
	<path
   class="st15"
   d="m 494.9,410.2 c -2.2,-10.2 -22.6,-14.8 -48.7,-12.1 10.4,-4 16.7,-9.2 16.5,-14.6 -0.2,-3.7 -3.4,-7 -8.8,-9.8 4.5,-1.4 7.4,-3.7 8.3,-6.6 3.1,-10.6 -20.7,-26.8 -53.2,-36.2 -32.4,-9.4 -58.4,-18.2 -64.3,2.1 -5,17.3 15.9,25.2 43.9,33.5 -27.9,1.2 -48.9,3.5 -48.1,22 0.8,20 28.2,18.9 61.9,17.5 1.1,0 2.2,-0.1 3.2,-0.2 -23.8,5.7 -40.1,12.7 -36,31.4 4.9,22.6 35.6,21.1 70.2,13.6 34.6,-7.4 57.8,-28.1 55.1,-40.6 z"
   id="path4604" />
	<path
   class="st0"
   d="m 519.9,374.2 c -3.3,-10.1 -11.2,-19.1 -20.6,-24.4 -22.2,-12.7 -51.7,-7.9 -76.1,-12.9 -11,-2.3 -41.6,-11.2 -46.3,5.5 -3.4,12.1 17.8,20.6 47.4,26 -28.2,1.2 -51.1,1.1 -50.4,18.8 0.7,16.7 43.9,13.7 72.9,14.1 -29.1,3.9 -47.5,17.6 -42.5,30.6 9.2,18.5 29.9,19.7 48.3,16.1 28.9,-5.1 49.7,-16.4 63.1,-43.5 2.5,-5.1 4.8,-10.4 5.6,-16.1 0.7,-4.8 0.1,-9.6 -1.4,-14.2 z"
   id="path4606" />
</g>
<g
   id="skeleton_1_">
	<circle
   id="rightShoulder"
   cx="572.3"
   cy="365.3"
   r="8.2" />
	<circle
   id="rightElbow"
   cx="519.5"
   cy="365.1"
   r="8.2" />
	<circle
   id="rightWrist"
   cx="393.8"
   cy="366.1"
   r="8.2" />
	<circle
   id="rightHip"
   cx="581.1"
   cy="564.1"
   r="8.2" />
	<circle
   id="rightKnee"
   cx="575.6"
   cy="725.2"
   r="8.2" />
	<circle
   id="rightAnkle"
   cx="575.6"
   cy="933.2"
   r="8.2" />
	<circle
   id="leftShoulder"
   cx="681.3"
   cy="365.4"
   r="8.2" />
	<circle
   id="leftElbow"
   cx="735.3"
   cy="365.1"
   r="8.2" />
	<circle
   id="leftWrist"
   cx="860.6"
   cy="365.1"
   r="8.2" />
	<circle
   id="leftHip"
   cx="673.1"
   cy="563.3"
   r="8.2" />
	<circle
   id="leftKnee"
   cx="685.6"
   cy="725.2"
   r="8.2" />
	<circle
   id="leftAnkle"
   cx="685.6"
   cy="933.2"
   r="8.2" />
	<polygon
   class="st16"
   points="572.2,365.6 581,564.4 673,563.6 681.2,365.7  "
   id="polygon4621" />
	<polyline
   class="st16"
   points="571.2,365.6 519.2,365.3 393.6,366.2  "
   id="polyline4623" />
	<polyline
   class="st16"
   points="682.7,365.3 735.5,365.3 860.7,365.4  "
   id="polyline4625" />
	<polyline
   class="st16"
   points="581,564.4 575.5,725.5 575.5,933.5  "
   id="polyline4627" />
	<polyline
   class="st16"
   points="673,563.6 685.5,725.5 685.5,933.5  "
   id="polyline4629" />
	<circle
   id="rightEye0"
   cx="594.7"
   cy="215.1"
   r="0.8" />
	<circle
   id="rightBrow1"
   cx="592.5"
   cy="203.2"
   r="0.8" />
	<circle
   id="rightBrow4"
   cx="615.8"
   cy="206.2"
   r="0.8" />
	<circle
   id="nose1"
   cx="623.7"
   cy="216.1"
   r="0.8" />
	<circle
   id="rightBrow3"
   cx="606"
   cy="202.2"
   r="0.8" />
	<circle
   id="rightEye1"
   cx="599.9"
   cy="211.4"
   r="0.8" />
	<circle
   id="rightBrow0"
   cx="588.5"
   cy="206.9"
   r="0.8" />
	<circle
   id="rightBrow2"
   cx="598.7"
   cy="202.2"
   r="0.8" />
	<circle
   id="rightEye5"
   cx="599.9"
   cy="217.4"
   r="0.8" />
	<circle
   id="rightEye2"
   cx="606.2"
   cy="211.4"
   r="0.8" />
	<circle
   id="rightEye3"
   cx="611.4"
   cy="215.6"
   r="0.8" />
	<circle
   id="nose0"
   cx="623.7"
   cy="210.3"
   r="0.8" />
	<circle
   id="nose3"
   cx="623.7"
   cy="228.7"
   r="0.8" />
	<circle
   id="rightNose0"
   cx="613"
   cy="233.2"
   r="0.8" />
	<circle
   id="rightMouthCorner"
   cx="607"
   cy="255.3"
   r="0.8" />
	<circle
   id="rightNose1"
   cx="618.2"
   cy="233.2"
   r="0.8" />
	<circle
   id="rightUpperLipTop0"
   cx="613.9"
   cy="251.9"
   r="0.8" />
	<circle
   id="nose2"
   cx="623.7"
   cy="221.6"
   r="0.8" />
	<circle
   id="nose4"
   cx="623.7"
   cy="234"
   r="0.8" />
	<circle
   id="upperLipTopMid"
   cx="624.5"
   cy="251.7"
   r="0.8" />
	<circle
   id="rightUpperLipTop1"
   cx="620.4"
   cy="250.8"
   r="0.8" />
	<path
   id="rightMiddleLip"
   d="M610.6,254.8c0.4,0,0.8,0.4,0.8,0.8c0,0.4-0.4,0.8-0.8,0.8s-0.8-0.4-0.8-0.8S610.2,254.8,610.6,254.8z   " />
	<circle
   id="lowerLipBottomMid"
   cx="624.5"
   cy="264.9"
   r="0.8" />
	<circle
   id="upperLipBottomMid"
   cx="624.5"
   cy="255.3"
   r="0.8" />
	<circle
   id="lowerLipTopMid"
   cx="624.5"
   cy="258.4"
   r="0.8" />
	<circle
   id="rightUpperLipBottom1"
   cx="620.6"
   cy="254.8"
   r="0.8" />
	<circle
   id="rightLowerLipTop0"
   cx="620.6"
   cy="257.7"
   r="0.8" />
	<circle
   id="rightLowerLipBottom1"
   cx="620.4"
   cy="264.4"
   r="0.8" />
	<circle
   id="rightLowerLipBottom0"
   cx="613.4"
   cy="261.6"
   r="0.8" />
	<circle
   id="rightEye4"
   cx="606.2"
   cy="216.6"
   r="0.8" />
	<circle
   id="jawMid"
   cx="624.5"
   cy="290.7"
   r="0.8" />
	<circle
   id="rightJaw7"
   cx="609.5"
   cy="287.5"
   r="0.8" />
	<circle
   id="rightJaw6"
   cx="599.5"
   cy="280.8"
   r="0.8" />
	<circle
   id="rightJaw5"
   cx="587.9"
   cy="268.3"
   r="0.8" />
	<circle
   id="rightJaw4"
   cx="581.1"
   cy="248.3"
   r="0.8" />
	<circle
   id="rightJaw3"
   cx="580.3"
   cy="226.6"
   r="0.8" />
	<circle
   id="rightJaw2"
   cx="580.3"
   cy="217.1"
   r="0.8" />
	<circle
   id="rightJaw1"
   cx="581.1"
   cy="205.4"
   r="0.8" />
	<circle
   id="rightJaw0"
   cx="583.6"
   cy="196.1"
   r="0.8" />
	<circle
   id="topMid"
   cx="624.7"
   cy="170"
   r="0.8" />
	<circle
   id="leftTop0"
   cx="644.4"
   cy="172.5"
   r="0.8" />
	<circle
   id="leftTop1"
   cx="657"
   cy="182"
   r="0.8" />
	<circle
   id="leftEye0"
   cx="654.3"
   cy="215.1"
   r="0.8" />
	<circle
   id="leftBrow1"
   cx="656.2"
   cy="203.6"
   r="0.8" />
	<circle
   id="leftBrow4"
   cx="632.6"
   cy="205.7"
   r="0.8" />
	<circle
   id="leftBrow3"
   cx="642.6"
   cy="202.5"
   r="0.8" />
	<circle
   id="leftEye1"
   cx="649.1"
   cy="211.4"
   r="0.8" />
	<circle
   id="leftBrow0"
   cx="660.2"
   cy="206.5"
   r="0.8" />
	<circle
   id="leftBrow2"
   cx="649.9"
   cy="202.1"
   r="0.8" />
	<circle
   id="leftEye5"
   cx="649.1"
   cy="217.4"
   r="0.8" />
	<circle
   id="leftEye2"
   cx="642.8"
   cy="211.4"
   r="0.8" />
	<circle
   id="leftEye3"
   cx="637.6"
   cy="215.6"
   r="0.8" />
	<circle
   id="leftNose0"
   cx="634.1"
   cy="233.2"
   r="0.8" />
	<circle
   id="leftMouthCorner"
   cx="642"
   cy="255.3"
   r="0.8" />
	<circle
   id="leftNose1"
   cx="629.3"
   cy="233.2"
   r="0.8" />
	<circle
   id="leftUpperLipTop0"
   cx="635.1"
   cy="251.9"
   r="0.8" />
	<circle
   id="leftUpperLipTop1"
   cx="628.7"
   cy="250.8"
   r="0.8" />
	<path
   id="leftMiddleLip"
   d="M638.4,254.8c0.4,0,0.8,0.4,0.8,0.8c0,0.4-0.4,0.8-0.8,0.8s-0.8-0.4-0.8-0.8S638,254.8,638.4,254.8z" />
	<circle
   id="leftUpperLipBottom1"
   cx="628.5"
   cy="254.8"
   r="0.8" />
	<circle
   id="leftLowerLipTop0"
   cx="628.5"
   cy="257.7"
   r="0.8" />
	<circle
   id="leftLowerLipBottom1"
   cx="628.7"
   cy="264.4"
   r="0.8" />
	<circle
   id="leftLowerLipBottom0"
   cx="635.6"
   cy="261.6"
   r="0.8" />
	<circle
   id="leftEye4"
   cx="642.8"
   cy="216.6"
   r="0.8" />
	<circle
   id="leftJaw7"
   cx="639.3"
   cy="287.9"
   r="0.8" />
	<circle
   id="leftJaw6"
   cx="649.3"
   cy="281.2"
   r="0.8" />
	<circle
   id="leftJaw5"
   cx="660.9"
   cy="268.6"
   r="0.8" />
	<circle
   id="leftJaw4"
   cx="667.7"
   cy="248.6"
   r="0.8" />
	<circle
   id="leftJaw3"
   cx="668.5"
   cy="227"
   r="0.8" />
	<circle
   id="leftJaw2"
   cx="668.5"
   cy="217.4"
   r="0.8" />
	<circle
   id="leftJaw1"
   cx="667.7"
   cy="205.7"
   r="0.8" />
	<circle
   id="leftJaw0"
   cx="665.2"
   cy="196.5"
   r="0.8" />
	<polyline
   class="st16"
   points="624.5,170 604.7,172.5 592.2,182 583.6,196.1 581.1,205.4 580.3,217.1 580.3,226.6 581.1,248.3    587.9,268.3 599.5,280.8 609.5,287.5 624.5,290.7 639.3,287.9 649.3,281.2 660.9,268.6 667.7,248.6 668.5,227 668.5,217.4    667.7,205.7 665.2,196.5 657,182 644.4,172.5 624.5,170  "
   id="polyline4702" />
	<polyline
   class="st16"
   points="588.5,206.9 592.5,203.2 598.7,202.2 606,202.2 615.8,206.2  "
   id="polyline4704" />
	<polygon
   class="st16"
   points="594.7,215.1 599.9,211.4 606.2,211.4 611.4,215.6 606.2,216.6 599.9,217.4  "
   id="polygon4706" />
	<polyline
   class="st16"
   points="613,233.2 618.2,233.2 623.7,234 623.7,228.7 623.7,221.6 623.7,216.1 623.7,210.3  "
   id="polyline4708" />
	<polyline
   class="st16"
   points="660,206.5 656,203.6 649.7,202.1 642.4,202.5 632.4,205.7  "
   id="polyline4710" />
	<polygon
   class="st16"
   points="654.1,215.1 648.8,211.4 642.5,211.4 637.4,215.6 642.5,216.6 648.8,217.4  "
   id="polygon4712" />
	<polyline
   class="st16"
   points="634.1,233.2 629.1,233.2 623.7,234  "
   id="polyline4714" />
	<polygon
   class="st16"
   points="607,255.3 613.9,251.9 620.4,250.8 624.5,251.7 628.7,250.8 635.1,251.9 642,255.3 635.6,261.6    628.5,264.4 624.5,264.9 620.4,264.4 613.4,261.6  "
   id="polygon4716" />
	<polyline
   class="st16"
   points="607,255.3 610.6,255.6 620.6,254.8 624.5,255.3 628.5,254.8 638.4,255.6 642,255.3  "
   id="polyline4718" />
	<polyline
   class="st16"
   points="607,255.3 610.6,255.6 620.6,257.7 624.5,258.5 628.5,257.7 638.4,255.6 642,255.3  "
   id="polyline4720" />
	<circle
   id="rightTop0"
   cx="604.8"
   cy="172.5"
   r="0.8" />
	<circle
   id="rightTop1"
   cx="592.2"
   cy="182"
   r="0.8" />
</g>
</svg>
